<?xml version="1.0" encoding="UTF-8" standalone="no"?>
<!-- Created with Inkscape (http://www.inkscape.org/) -->

<svg
   width="560"
   height="120"
   viewBox="0 0 148.16666 31.75"
   version="1.1"
   id="svg332"
   inkscape:version="1.2 (dc2aedaf03, 2022-05-15)"
   sodipodi:docname="Logo.svg"
   xmlns:inkscape="http://www.inkscape.org/namespaces/inkscape"
   xmlns:sodipodi="http://sodipodi.sourceforge.net/DTD/sodipodi-0.dtd"
   xmlns="http://www.w3.org/2000/svg"
   xmlns:svg="http://www.w3.org/2000/svg">
  <sodipodi:namedview
     id="namedview334"
     pagecolor="#505050"
     bordercolor="#ffffff"
     borderopacity="1"
     inkscape:showpageshadow="0"
     inkscape:pageopacity="0"
     inkscape:pagecheckerboard="1"
     inkscape:deskcolor="#505050"
     inkscape:document-units="mm"
     showgrid="false"
     inkscape:zoom="2"
     inkscape:cx="303.25"
     inkscape:cy="67"
     inkscape:window-width="1920"
     inkscape:window-height="1017"
     inkscape:window-x="-8"
     inkscape:window-y="-8"
     inkscape:window-maximized="1"
     inkscape:current-layer="svg332"
     showguides="false">
    <sodipodi:guide
       position="120.53427,27.758065"
       orientation="0,-1"
       id="guide1494"
       inkscape:locked="false" />
    <sodipodi:guide
       position="119.40322,21.947581"
       orientation="0,-1"
       id="guide1496"
       inkscape:locked="false" />
    <sodipodi:guide
       position="135.54838,19.995968"
       orientation="0,-1"
       id="guide1498"
       inkscape:locked="false" />
    <sodipodi:guide
       position="135.2379,10.326613"
       orientation="0,-1"
       id="guide1500"
       inkscape:locked="false" />
    <sodipodi:guide
       position="135.21572,8.3306451"
       orientation="0,-1"
       id="guide1502"
       inkscape:locked="false" />
    <sodipodi:guide
       position="85.967241,18.045755"
       orientation="0,-1"
       id="guide1506"
       inkscape:locked="false" />
    <sodipodi:guide
       position="108.73588,25.850806"
       orientation="0,-1"
       id="guide1569"
       inkscape:locked="false" />
    <sodipodi:guide
       position="55.731852,11.125"
       orientation="1,0"
       id="guide1615"
       inkscape:locked="false" />
    <sodipodi:guide
       position="70.058465,9.3951612"
       orientation="1,0"
       id="guide1617"
       inkscape:locked="false" />
    <sodipodi:guide
       position="67.840723,8.4193548"
       orientation="1,0"
       id="guide1619"
       inkscape:locked="false" />
    <sodipodi:guide
       position="60.05546,4.34151"
       orientation="0,-1"
       id="guide1767"
       inkscape:locked="false" />
    <sodipodi:guide
       position="59.880064,2.388772"
       orientation="0,-1"
       id="guide1769"
       inkscape:locked="false" />
    <sodipodi:guide
       position="84.552383,20.75854"
       orientation="1,0"
       id="guide1873"
       inkscape:locked="false" />
    <sodipodi:guide
       position="85.651529,20.583145"
       orientation="1,0"
       id="guide1875"
       inkscape:locked="false" />
    <sodipodi:guide
       position="9.4362843,19.975107"
       orientation="1,0"
       id="guide2100"
       inkscape:locked="false" />
    <sodipodi:guide
       position="10.453579,20.431135"
       orientation="1,0"
       id="guide2102"
       inkscape:locked="false" />
    <sodipodi:guide
       position="86.667576,20.339843"
       orientation="1,0"
       id="guide2129"
       inkscape:locked="false" />
    <sodipodi:guide
       position="57.97682,14.816667"
       orientation="1,0"
       id="guide2755"
       inkscape:locked="false" />
  </sodipodi:namedview>
  <defs
     id="defs329">
    <rect
       x="25.130399"
       y="15.173071"
       width="407.34857"
       height="64.995817"
       id="rect1181" />
    <rect
       x="39.355153"
       y="24.656241"
       width="496.44392"
       height="82.977733"
       id="rect1121" />
    <rect
       x="25.1304"
       y="15.173071"
       width="407.34857"
       height="64.995819"
       id="rect1181-2" />
    <rect
       x="25.1304"
       y="15.173071"
       width="407.34857"
       height="64.995819"
       id="rect1181-2-5" />
    <pattern
       id="EMFhbasepattern"
       patternUnits="userSpaceOnUse"
       width="6"
       height="6"
       x="0"
       y="0" />
    <clipPath
       clipPathUnits="userSpaceOnUse"
       id="clipPath302">
      <ellipse
         style="display:none;fill:#000000;stroke-width:0.267015"
         id="ellipse304"
         cx="78.539688"
         cy="77.691597"
         rx="43.364479"
         ry="5.580235"
         d="M 121.90417,77.691597 A 43.364479,5.580235 0 0 1 78.539688,83.271832 43.364479,5.580235 0 0 1 35.175209,77.691597 43.364479,5.580235 0 0 1 78.539688,72.111362 43.364479,5.580235 0 0 1 121.90417,77.691597 Z" />
      <path
         id="lpe_path-effect306"
         style="fill:#000000;stroke-width:0.267015"
         class="powerclip"
         d="M 18.060387,66.626485 H 138.91964 V 93.092509 H 18.060387 Z M 121.90417,77.691597 a 43.364479,5.580235 0 0 0 -43.364482,-5.580235 43.364479,5.580235 0 0 0 -43.364479,5.580235 43.364479,5.580235 0 0 0 43.364479,5.580235 43.364479,5.580235 0 0 0 43.364482,-5.580235 z" />
    </clipPath>
    <inkscape:path-effect
       effect="powerclip"
       id="path-effect306"
       is_visible="true"
       lpeversion="1"
       inverse="true"
       flatten="false"
       hide_clip="false"
       message="Use fill-rule evenodd on &lt;b&gt;fill and stroke&lt;/b&gt; dialog if no flatten result after convert clip to paths." />
  </defs>
  <path
     id="path1258-2"
     style="font-size:44.3866px;font-family:Comfortaa;-inkscape-font-specification:'Comfortaa, Normal';white-space:pre;display:inline;fill:#000000;stroke-width:0.596088;fill-opacity:1"
     d="M 7.2207479,3.9873535 C 6.9301282,3.9932535 6.6779015,4.090195 6.4647217,4.2782918 6.2538419,4.4643666 6.1484619,4.6913769 6.1484619,4.9583537 V 22.432739 c 0,0.266976 0.10538,0.497783 0.3162598,0.691948 0.2200598,0.186072 0.4813618,0.279052 0.7839315,0.279052 H 20.451982 c 0.302579,0 0.559605,-0.09298 0.770495,-0.279052 0.22005,-0.194165 0.330213,-0.424972 0.330213,-0.691948 0,-0.266976 -0.110163,-0.49347 -0.330213,-0.679545 -0.21089,-0.194166 -0.467916,-0.290938 -0.770495,-0.290938 H 8.3493612 v -7.775753 h 5.167e-4 V 11.74502 H 8.3493612 V 5.9288371 H 20.451982 c 0.302579,0 0.559605,-0.092981 0.770495,-0.2790528 0.22005,-0.1941648 0.330213,-0.4244539 0.330213,-0.6914306 0,-0.2669768 -0.110163,-0.4939871 -0.330213,-0.6800619 C 21.011587,4.084127 20.754561,3.9873535 20.451982,3.9873535 H 7.2486532 c -0.009,0 -0.018505,-1.9e-4 -0.027905,0 z m 3.2395951,7.7638675 v 0.01344 c -0.272289,0.01429 -0.5096577,0.11076 -0.7121008,0.289388 -0.2108863,0.186073 -0.3162598,0.412568 -0.3162598,0.679545 0,0.266976 0.1053735,0.497267 0.3162598,0.69143 0.2200528,0.186075 0.4813518,0.279053 0.7839318,0.279053 h 6.601664 c 0.06081,0 0.119626,-0.0039 0.176733,-0.01137 h 0.852661 c 0.30258,0 0.559089,-0.09298 0.769979,-0.279052 0.22005,-0.194166 0.330213,-0.424972 0.330213,-0.691948 0,-0.266977 -0.110163,-0.493471 -0.330213,-0.679545 -0.21089,-0.194168 -0.467399,-0.290938 -0.769979,-0.290938 z"
     inkscape:label="E" />
  <path
     d="m 31.455193,11.753955 q -2.28308,0 -3.89224,1.419832 -1.60916,1.419831 -1.60916,3.434293 0,2.014462 1.60916,3.434294 1.60916,1.419832 3.89224,1.419832 2.28308,0 3.89224,-1.419832 1.60916,-1.419832 1.60916,-3.434294 0,-2.014462 -1.60916,-3.434293 -1.60916,-1.419832 -3.89224,-1.419832 z m 5.5014,9.611168 q -2.31059,2.038733 -5.5014,2.038733 -3.19082,0 -5.44639,-1.990192 -2.25557,-1.990191 -2.25557,-4.805584 0,-2.815393 2.25557,-4.805584 2.25557,-1.9901915 5.44639,-1.9901915 3.19081,0 5.44638,1.9901915 2.25558,1.990191 2.25558,4.805584 v 5.824951 q 0,0.400465 -0.33009,0.691713 -0.31633,0.279112 -0.77019,0.279112 -0.45387,0 -0.78395,-0.279112 -0.31633,-0.291248 -0.31633,-0.691713 z"
     id="path1260-0"
     style="font-size:44.3866px;font-family:Comfortaa;-inkscape-font-specification:'Comfortaa, Normal';white-space:pre;fill:#000000;stroke-width:0.596088;fill-opacity:1"
     inkscape:label="A" />
  <path
     d="m 44.080903,16.60808 q -1.25157,-0.4126 -1.74669,-0.861607 -0.9765,-0.849472 -0.9765,-2.050868 0,-1.201396 1.01776,-2.099409 1.9805,-1.7838915 5.17131,-1.7838915 3.45213,0 5.91401,2.4391985 0.22005,0.230571 0.2063,0.57036 0,0.400465 -0.33008,0.691712 -0.31633,0.279112 -0.7702,0.279112 -0.45387,0 -0.72894,-0.254841 -0.27507,-0.254842 -0.39885,-0.364059 -1.60916,-1.419832 -3.89224,-1.419832 -2.28308,0 -3.64468,1.262073 -0.33008,0.351923 -0.33008,0.837336 0.0413,0.57036 0.67392,0.77666 l 6.76672,1.978056 q 1.25157,0.412601 1.7467,0.861607 0.9765,0.849472 0.9765,2.050869 0,1.201395 -1.01776,2.099409 -1.98051,1.783891 -5.17132,1.783891 -3.46588,0 -5.914,-2.439198 -0.20631,-0.254842 -0.20631,-0.57036 0,-0.400466 0.31633,-0.679578 0.33009,-0.291247 0.78395,-0.291247 0.45387,0 0.72894,0.254842 0.27507,0.254841 0.39885,0.364059 1.60916,1.419832 3.89224,1.419832 2.28308,0 3.64468,-1.262073 0.33008,-0.351924 0.33008,-0.837337 -0.0413,-0.570359 -0.67392,-0.776659 z"
     id="path1262-3"
     style="font-size:44.3866px;font-family:Comfortaa;-inkscape-font-specification:'Comfortaa, Normal';white-space:pre;fill:#000000;stroke-width:0.596088;fill-opacity:1"
     inkscape:label="S" />
  <path
     id="path1270-4-3"
     style="display:inline;font-size:44.3866px;font-family:Comfortaa;-inkscape-font-specification:'Comfortaa, Normal';white-space:pre;fill:#000000;stroke-width:0.596088;fill-opacity:1"
     d="m 56.871464,9.803536 c -0.302575,0 -0.563874,0.096774 -0.783931,0.290938 -0.210886,0.186075 -0.31626,0.412569 -0.31626,0.679545 v 6.310726 c 0,1.739394 0.697141,3.228077 2.090828,4.465878 1.402854,1.22971 3.089852,1.844331 5.06119,1.844331 1.925485,0 3.575767,-0.586502 4.951119,-1.759582 v 2.144055 c -0.16735,0.879081 -0.6294,1.652788 -1.386479,2.320789 -0.934486,0.824537 -1.96258,1.281788 -3.277319,1.30793 -5.24e-4,-1.5e-5 -10e-4,1.5e-5 -0.0016,0 H 59.03389 c -1.326835,0.01633 -1.452719,1.919724 0,1.941484 1.43028,0.0058 2.998659,0.01844 4.302687,0.0015 2.009255,-0.0261 3.484649,-0.728289 4.844225,-1.948669 1.359575,-1.22038 1.881459,-4.134085 1.878954,-4.69377 -6e-6,-0.0014 -4.9e-4,-0.0027 -5.16e-4,-0.0041 0.0013,-8.75e-4 0.0029,-0.0017 0.0041,-0.0026 l 0.01189,-11.927954 c 2.62e-4,-0.266976 -0.110159,-0.49347 -0.330212,-0.679545 -0.210887,-0.1941646 -0.467916,-0.290938 -0.770496,-0.290938 -0.302572,0 -0.563871,0.096774 -0.783931,0.290938 -0.21088,0.186075 -0.31626,0.412569 -0.31626,0.679545 v 6.310726 c 0,1.20544 -0.485873,2.236823 -1.457792,3.094385 -0.962746,0.849471 -2.127155,1.274341 -3.493327,1.274341 -1.366186,0 -2.535367,-0.42487 -3.507279,-1.274341 -0.962744,-0.857562 -1.44384,-1.888945 -1.44384,-3.094385 v -6.310726 c 0,-0.266976 -0.110159,-0.49347 -0.330212,-0.679545 C 57.431074,9.9003094 57.174043,9.803536 56.871464,9.803536 Z"
     sodipodi:nodetypes="sssscsccsccccszsccccsssssscsscs"
     transform="translate(-0.00756688,-0.00147624)"
     inkscape:label="Y" />
  <path
     d="m 72.936718,13.658455 q -0.45387,0 -0.78395,-0.279113 -0.31633,-0.291247 -0.31633,-0.691713 0,-0.400465 0.31633,-0.679577 0.33008,-0.291248 0.78395,-0.291248 h 6.60168 q 0.45386,0 0.77019,0.291248 0.33009,0.279112 0.33009,0.679577 0,0.400466 -0.33009,0.691713 -0.31633,0.279113 -0.77019,0.279113 z"
     id="path1266-2"
     style="font-size:44.3866px;font-family:Comfortaa;-inkscape-font-specification:'Comfortaa, Normal';white-space:pre;fill:#000000;stroke-width:0.596088;fill-opacity:1"
     inkscape:label="EmDash" />
  <path
     id="path1268-8"
     style="font-size:44.3866px;font-family:Comfortaa;-inkscape-font-specification:'Comfortaa, Normal';white-space:pre;fill:#000000;stroke-width:0.596088;fill-opacity:1"
     d="M 83.415063 3.9873535 C 83.124444 3.9932535 82.872217 4.090195 82.659037 4.2782918 C 82.448147 4.4643666 82.342778 4.6913769 82.342778 4.9583537 L 82.342778 22.432739 C 82.342778 22.699715 82.448147 22.930522 82.659037 23.124687 C 82.879097 23.310759 83.140906 23.403739 83.443486 23.403739 L 88.944442 23.403739 C 90.76907 23.403739 92.323548 22.837244 93.607206 21.704618 C 94.900025 20.5639 95.546106 19.18872 95.546106 17.578772 C 95.546106 15.968824 94.904301 14.593642 93.620642 13.452926 C 93.043003 12.951333 92.415029 12.558893 91.736519 12.275736 C 92.809288 11.329184 93.345723 10.184294 93.345723 8.8413208 C 93.345723 7.4983491 92.809288 6.3534582 91.736519 5.4069051 C 90.66375 4.4603531 89.366299 3.9873535 87.84425 3.9873535 L 83.443486 3.9873535 C 83.433486 3.9873535 83.424363 3.9871635 83.415063 3.9873535 z M 84.543677 5.9288371 L 87.84425 5.9288371 C 88.75198 5.9288371 89.526827 6.2158798 90.168656 6.7902832 C 90.819656 7.3565966 91.145341 8.0403916 91.145341 8.8413208 C 91.145341 9.6422498 90.819656 10.329841 90.168656 10.904244 C 89.526827 11.470558 88.75198 11.753805 87.84425 11.753805 L 86.673779 11.753805 L 86.667578 11.753805 L 86.667578 11.759489 C 86.398455 11.775161 86.163794 11.87139 85.963228 12.04836 C 85.752342 12.234435 85.646969 12.460929 85.646969 12.727905 C 85.646969 12.994882 85.752342 13.225171 85.963228 13.419336 C 86.183281 13.605409 86.44458 13.698389 86.74716 13.698389 L 87.527991 13.698389 C 87.561173 13.698389 87.593579 13.697526 87.625659 13.695288 L 88.944958 13.695288 C 90.164437 13.695288 91.200587 14.075825 92.053296 14.836304 C 92.915185 15.588691 93.34624 16.502775 93.34624 17.578772 C 93.34624 18.654767 92.915185 19.573165 92.053296 20.333643 C 91.200587 21.086031 90.164437 21.462256 88.944958 21.462256 L 84.544194 21.462256 L 84.544194 14.515393 L 84.539026 14.515393 L 84.539026 10.820528 L 84.544194 10.820528 L 84.543677 5.9288371 z "
     inkscape:label="B" />
  <path
     d="m 112.05069,22.433031 q 0,0.400465 -0.33008,0.691713 -0.31633,0.279112 -0.7702,0.279112 -0.45386,0 -0.78395,-0.279112 -0.31632,-0.291248 -0.31632,-0.691713 v -0.788796 q -2.06303,1.759621 -4.95126,1.759621 -2.95701,0 -5.061287,-1.844568 -2.09054,-1.856703 -2.09054,-4.465795 V 10.78313 q 0,-0.400465 0.31633,-0.679578 0.33009,-0.2912475 0.78395,-0.2912475 0.45387,0 0.7702,0.2912475 0.33008,0.279113 0.33008,0.679578 v 6.310363 q 0,1.808161 1.444117,3.094505 1.45787,1.274208 3.50715,1.274208 2.04926,0 3.49338,-1.274208 1.45788,-1.286344 1.45788,-3.094505 V 10.78313 q 0,-0.400465 0.31632,-0.679578 0.33009,-0.2912475 0.78395,-0.2912475 0.45387,0 0.7702,0.2912475 0.33008,0.279113 0.33008,0.679578 z"
     id="path1270-7"
     style="font-size:44.3866px;font-family:Comfortaa;-inkscape-font-specification:'Comfortaa, Normal';white-space:pre;fill:#000000;stroke-width:0.596088;fill-opacity:1"
     inkscape:label="U" />
  <path
     d="m 115.35154,10.78313 c 0,-0.266977 0.10544,-0.493503 0.31633,-0.679578 0.22005,-0.1941655 0.48137,-0.2912475 0.78395,-0.2912475 0.30257,0 0.5593,0.09708 0.77019,0.2912475 0.22006,0.186075 0.33009,0.412601 0.33009,0.679578 v 11.649901 c 0,0.266977 -0.11003,0.497548 -0.33009,0.691713 -0.21089,0.186075 -0.46762,0.279112 -0.77019,0.279112 -0.30258,0 -0.5639,-0.09304 -0.78395,-0.279112 -0.21089,-0.194165 -0.31633,-0.424736 -0.31633,-0.691713 z"
     id="path1272-2"
     style="font-size:44.3866px;font-family:Comfortaa;-inkscape-font-specification:'Comfortaa, Normal';white-space:pre;fill:#000000;stroke-width:0.596088;fill-opacity:1"
     sodipodi:nodetypes="ssscsssscss"
     inkscape:label="I" />
  <circle
     style="fill:#000000;stroke-width:0.264583;fill-opacity:1"
     id="path1490-8"
     cx="116.51259"
     cy="7.1069417"
     r="1.1975806"
     inkscape:label="I Dot" />
  <path
     d="m 120.85294,4.9581797 c 0,-0.266977 0.10544,-0.493503 0.31633,-0.679578 0.22005,-0.194165 0.48137,-0.291248 0.78395,-0.291248 0.30257,0 0.55931,0.09708 0.7702,0.291248 0.22005,0.186075 0.27743,0.417843 0.33008,0.679578 -1e-5,0.721907 0.15495,16.6209183 0.12825,17.4083193 0.0254,0.484873 -0.15439,0.56408 -0.37445,0.758245 -0.21088,0.186075 -0.46762,0.279112 -0.7702,0.279112 h -0.0839 c -0.30258,0 -0.5639,-0.09304 -0.78395,-0.279112 -0.21089,-0.194165 -0.31633,-0.424736 -0.31633,-0.691713 z"
     id="path1274-9"
     style="font-size:44.3866px;font-family:Comfortaa;-inkscape-font-specification:'Comfortaa, Normal';white-space:pre;fill:#000000;stroke-width:0.596088;fill-opacity:1"
     sodipodi:nodetypes="ssscccssscss"
     inkscape:label="L" />
  <path
     d="m 139.07046,16.60808 c 0,-1.342975 -0.53638,-2.487739 -1.60915,-3.434293 -1.07277,-0.946555 -2.37019,-1.419832 -3.89224,-1.419832 -1.52205,0 -2.81947,0.473277 -3.89224,1.419832 -1.07277,0.946554 -1.60916,2.091318 -1.60916,3.434293 0,1.342975 0.53639,2.487739 1.60916,3.434294 1.07277,0.946555 2.37019,1.419832 3.89224,1.419832 1.52205,0 2.81947,-0.473277 3.89224,-1.419832 1.07277,-0.946555 1.60915,-2.091319 1.60915,-3.434294 z m 0,-11.6741713 c 0,-0.266977 0.10545,-0.493502 0.31634,-0.679577 0.22005,-0.194165 0.48137,-0.291248 0.78395,-0.291248 0.30257,0 0.5593,0.09708 0.77019,0.291248 0.22006,0.186075 0.33009,0.4126 0.33009,0.679577 V 16.60808 c 0,1.876929 -0.75186,3.47879 -2.25558,4.805584 -1.50371,1.326795 -3.31917,1.990192 -5.44638,1.990192 -2.12721,0 -3.94268,-0.663397 -5.44639,-1.990192 -1.50371,-1.326794 -2.25557,-2.928655 -2.25557,-4.805584 0,-1.876929 0.75186,-3.47879 2.25557,-4.805584 1.50371,-1.326794 3.31918,-1.9901915 5.44639,-1.9901915 2.12721,0 3.94267,0.6633975 5.44638,1.9901915 l 0.055,0.04854 z"
     id="path1276-7"
     style="font-size:44.3866px;font-family:Comfortaa;-inkscape-font-specification:'Comfortaa, Normal';white-space:pre;fill:#000000;stroke-width:0.596088;fill-opacity:1"
     sodipodi:nodetypes="sssssssssssscssssssssscs"
     inkscape:label="D" />
  <path
     style="display:inline;fill:#000000;stroke-width:0.21735;fill-opacity:0.5"
     id="path104"
     clip-path="url(#clipPath302)"
     transform="matrix(0.18244568,-0.18244568,0.18244568,0.18244568,2.540713,16.775211)"
     inkscape:label="Ring"
     d="M 133.91964,79.859497 A 55.429626,8.2330122 0 0 1 78.490013,88.092509 55.429626,8.2330122 0 0 1 23.060387,79.859497 55.429626,8.2330122 0 0 1 78.490013,71.626485 55.429626,8.2330122 0 0 1 133.91964,79.859497 Z"
     sodipodi:type="arc"
     sodipodi:ry="8.2330122"
     sodipodi:rx="55.429626"
     sodipodi:cy="79.859497"
     sodipodi:cx="78.490013"
     inkscape:path-effect="#path-effect306" />
</svg>
